# xmcd
#
# Track frame offsets: 
#        150
#        16848
#        31144
#        44799
#        58523
#        72105
#        90220
#        103164
#        122684
#        137084
#        156802
#        169969
#        183832
#        198833
#        215953
#        227385
#        241199
#        256850
#        270521
#
# Disc length: 3766 seconds
#
# Revision: 2
# Processed by: cddbd v1.5.2PL0 Copyright (c) Steve Scherf et al.
# Submitted via: ExactAudioCopy v0.99pb4
#
DISCID=fb0eb413
DTITLE=Koos Alberts - Vechten Voor Geluk
DYEAR=2008
DGENRE=Chanson
TTITLE0=Koos Alberts - Samen Vechten
TTITLE1=Koos Alberts - Zijn Het Je Ogen ?
TTITLE2=Koos Alberts - Ik Verscheurde Je Foto
TTITLE3=Koos Alberts - Kleine Kanariepiet
TTITLE4=Koos Alberts - Als Iemand Van Je Houdt
TTITLE5=Koos Alberts and Carool - Ik Wil Altijd Bij Jou Zijn
TTITLE6=Koos Alberts - De Laatste Sirtaki
TTITLE7=Koos Alberts - Eenmaal Kom Jij Terug
TTITLE8=Koos Alberts - Met Gesloten Ogen
TTITLE9=Koos Alberts - Zeven Rode Rozen
TTITLE10=Koos Alberts - Enkele Reis
TTITLE11=Koos Alberts - Kleine Vogel
TTITLE12=Koos Alberts - Gisteren Heeft Zij Mij Verlaten
TTITLE13=Koos Alberts and Carool - Duizend Kleine Dingen
TTITLE14=Koos Alberts - M'n Naam Staat Nog Steeds Op De Deur
TTITLE15=Koos Alberts and Dochter Christa - Jaren Komen, Jaren Gaan
TTITLE16=Koos Alberts - Ik Verlang Zo Naar Jou
TTITLE17=Koos Alberts - Blijf Nog Een Nacht Bij Mij
TTITLE18=Koos Alberts - Ik Zal Je Nooit Vergeten
EXTD=
EXTT0=
EXTT1=
EXTT2=
EXTT3=
EXTT4=
EXTT5=
EXTT6=
EXTT7=
EXTT8=
EXTT9=
EXTT10=
EXTT11=
EXTT12=
EXTT13=
EXTT14=
EXTT15=
EXTT16=
EXTT17=
EXTT18=
PLAYORDER=
